# xmcd CD database file
#
# Track frame offsets:
#	150
#	16050
#	41467
#	62427
#	89882
#	114270
#	148405
#	168965
#	202490
#	230590
#	256370
#	280217
#	309210
#
# Disc length: 4586 seconds
#
# Revision: 7
# Processed by: cddbd v1.5.2PL0 Copyright (c) Steve Scherf et al.
# Submitted via: CDex 1.70beta2
#
DISCID=b811e80d
DTITLE=Mondo Grosso - best
DYEAR=2000
DGENRE=Jazz
TTITLE0=Anger (Rhymin' For Original)
TTITLE1=Vibe.P.M (Funky Samba Mix)
TTITLE2=Souffles H
TTITLE3=Tree, Air, and Rain On The Earth
TTITLE4=Invisible Man (Original Brown)
TTITLE5=Espirito, Alleglia, Emosau
TTITLE6=Family
TTITLE7=Do You See What I See
TTITLE8=Give Me A Reason
TTITLE9=Slow It Down (Original Album Mix)
TTITLE10=Laughter In The Rain
TTITLE11=Closer
TTITLE12=That's How It Is (Live Version)
EXTD=YEAR: 2000
EXTT0=
EXTT1=
EXTT2=
EXTT3=
EXTT4=
EXTT5=
EXTT6=
EXTT7=
EXTT8=
EXTT9=
EXTT10=
EXTT11=
EXTT12=
PLAYORDER=
